<svg id="Layer_1" data-name="Layer 1" xmlns="http://www.w3.org/2000/svg" viewBox="0 0 177 177"><defs><style>.cls-1{fill:#ef3f3f;}.cls-1,.cls-3{fill-rule:evenodd;}.cls-2,.cls-3{fill:#fff;}</style></defs><title>logo</title><path class="cls-1" d="M0,0H177V177H0V0Z"/><path class="cls-2" d="M70.56,70.45a2.61,2.61,0,0,1-1.77.41H65.64a2.78,2.78,0,0,1-1.8-.41,2.45,2.45,0,0,1-.45-1.77V62.83H56.55v6.91q0,6.61,7,6.61h7.29q7.06,0,7.06-6.61V56.22q0-6.61-6.91-6.61H65.49a2.78,2.78,0,0,1-1.8-.41,2.45,2.45,0,0,1-.45-1.77V37a2.46,2.46,0,0,1,.45-1.77,2.8,2.8,0,0,1,1.8-.41h3.15a2.8,2.8,0,0,1,1.8.41A2.46,2.46,0,0,1,70.9,37v5.86h6.84V35.93q0-6.61-7-6.61H63.39q-7,0-7,6.61v12.4Q56.4,55,63.23,55h5.56a2.62,2.62,0,0,1,1.77.41A2.62,2.62,0,0,1,71,57.19V68.68A2.62,2.62,0,0,1,70.56,70.45Z"/><path class="cls-2" d="M106,35.18L110.26,60h-8.19Zm13.9,41.16-8.94-47H101.1l-8.34,47h6.76l1.73-10.89h9.92L113,76.35h6.84Z"/><path class="cls-2" d="M78.33,92.27q0-6.61-7-6.61h-8q-7,0-7,6.61v33.8q0,6.69,7,6.69h8q7,0,7-6.69V108.5H67.74v5.26H71.5v11.49A2.45,2.45,0,0,1,71,127a2.78,2.78,0,0,1-1.8.41H65.41a2.78,2.78,0,0,1-1.8-.41,2.45,2.45,0,0,1-.45-1.76V93.17a2.45,2.45,0,0,1,.45-1.77,2.79,2.79,0,0,1,1.8-.41h3.83a2.79,2.79,0,0,1,1.8.41,2.45,2.45,0,0,1,.45,1.77v6.24h6.84V92.27Z"/><path class="cls-2" d="M103.35,111.13h10.82v-5.48H103.35V91.15h13.07V85.66H96.51v47h20.43V127.2h-13.6V111.13Z"/><path class="cls-3" d="M56.74,140.25h60.1v6H56.74v-6Z"/></svg>